<?xml version="1.0" encoding="UTF-8" standalone="no"?>
<svg width="16px" height="16px" viewBox="0 0 16 16" version="1.1" xmlns="http://www.w3.org/2000/svg" xmlns:xlink="http://www.w3.org/1999/xlink">
    <!-- Generator: Sketch 39.1 (31720) - http://www.bohemiancoding.com/sketch -->
    <title>Shape</title>
    <desc>Created with Sketch.</desc>
    <defs></defs>
    <g id="Page-1" stroke="none" stroke-width="1" fill="none" fill-rule="evenodd">
        <g id="Priority-Pass---Inactive-(Low-CFI)" transform="translate(-130.000000, -454.000000)" fill="#FFFFFF">
            <g id="Wallet" transform="translate(100.000000, 250.000000)">
                <g id="Wallet-Card">
                    <path d="M37.99,204 C33.57,204 30,207.58 30,212 C30,216.42 33.57,220 37.99,220 C41.72,220 44.83,217.45 45.72,214 L43.64,214 C42.82,216.33 40.6,218 37.99,218 C34.68,218 31.99,215.31 31.99,212 C31.99,208.69 34.68,206 37.99,206 C39.65,206 41.13,206.69 42.21,207.78 L38.99,211 L45.99,211 L45.99,204 L43.64,206.35 C42.19,204.9 40.2,204 37.99,204 Z" id="Shape"></path>
                </g>
            </g>
        </g>
    </g>
</svg>